<mxfile>
    <diagram id="hLffJpjC34F4lq2qfQ25" name="Page-1">
        <mxGraphModel dx="639" dy="280" grid="1" gridSize="10" guides="1" tooltips="1" connect="1" arrows="1" fold="1" page="1" pageScale="1" pageWidth="850" pageHeight="1100" math="0" shadow="0">
            <root>
                <mxCell id="0"/>
                <mxCell id="1" parent="0"/>
                <object label="&lt;span style=&quot;background-color: rgb(0 , 0 , 0)&quot;&gt;robot&lt;/span&gt;" type="robot" movable="true" speed="5" id="robot">
                    <mxCell style="ellipse;whiteSpace=wrap;html=1;aspect=fixed;fillColor=#e3c800;strokeColor=#B09500;fontColor=#ffffff;" parent="1" vertex="1">
                        <mxGeometry x="10" y="10" width="30" height="30" as="geometry"/>
                    </mxCell>
                </object>
                <object label="&lt;span style=&quot;background-color: rgb(0 , 0 , 0)&quot;&gt;robot2&lt;/span&gt;" type="robot" movable="true" speed="5" id="robot2">
                    <mxCell style="ellipse;whiteSpace=wrap;html=1;aspect=fixed;fillColor=#e3c800;strokeColor=#B09500;fontColor=#ffffff;" parent="1" vertex="1">
                        <mxGeometry x="80" y="10" width="30" height="30" as="geometry"/>
                    </mxCell>
                </object>
                <object label="&lt;span style=&quot;background-color: rgb(0 , 0 , 0)&quot;&gt;robot3&lt;br&gt;&lt;/span&gt;" type="robot" movable="true" speed="5" id="robot3">
                    <mxCell style="ellipse;whiteSpace=wrap;html=1;aspect=fixed;fillColor=#e3c800;strokeColor=#B09500;fontColor=#ffffff;" parent="1" vertex="1">
                        <mxGeometry x="150" y="10" width="30" height="30" as="geometry"/>
                    </mxCell>
                </object>
            </root>
        </mxGraphModel>
    </diagram>
</mxfile>